# xmcd
#
# Track frame offsets: 
#        150
#        16345
#        40933
#        60023
#        87668
#        107683
#        131738
#        147495
#        164735
#        190160
#
# Disc length: 2884 seconds
#
# Revision: 0
# Processed by: cddbd v1.5.2PL0 Copyright (c) Steve Scherf et al.
# Submitted via: ExactAudioCopy v1.0b3
#
DISCID=890b420a
DTITLE=Various Artist - Que Huong Moi Goi
DYEAR=1900
DGENRE=
TTITLE0=Ngoc Lan - Mot chut qua cho que huong
TTITLE1=Kieu Nga - Sai Gon niem nho khong ten
TTITLE2=Kieu Nga - Kinh kho
TTITLE3=Ngoc Lan - Sai Gon vinh biet tinh ta
TTITLE4=Viet Dzung - Nang que huong
TTITLE5=Kieu Nga - Sai Gon oi vinh biet
TTITLE6=Ngoc Lan - Moi em ve
TTITLE7=Nhu Mai - Ve duoi mai nha
TTITLE8=Tuan Anh - Ai tro ve xu Viet
TTITLE9=Kieu Nga - Con duong tinh ta di
EXTD=
EXTT0=
EXTT1=
EXTT2=
EXTT3=
EXTT4=
EXTT5=
EXTT6=
EXTT7=
EXTT8=
EXTT9=
PLAYORDER=
